<svg width="1024" height="1024" viewBox="0 0 1024 1024" xmlns="http://www.w3.org/2000/svg">
    <defs>
        <!-- PAPER TEXTURE FILTER -->
        <filter id="paperGrain">
            <feTurbulence type="fractalNoise" baseFrequency="0.8" numOctaves="3" result="noise"/>
            <feColorMatrix type="matrix" values="0 0 0 0 0  0 0 0 0 0  0 0 0 0 0  0 0 0 0.1 0"/>
            <feComposite operator="in" in2="SourceGraphic"/>
        </filter>

        <!-- INK EDGE FILTER (Roughness) -->
        <filter id="inkRoughness">
            <feTurbulence type="fractalNoise" baseFrequency="0.04" numOctaves="3" result="noise"/>
            <feDisplacementMap in="SourceGraphic" in2="noise" scale="8" />
        </filter>
        
        <!-- INNER SHADOW (For the Leaf to sit "in" the paper) -->
        <filter id="insetShadow">
             <feOffset dx="0" dy="2"/>
             <feGaussianBlur stdDeviation="2" result="offset-blur"/>
             <feComposite operator="out" in="SourceGraphic" in2="offset-blur" result="inverse"/>
             <feFlood flood-color="black" flood-opacity="0.2" result="color"/>
             <feComposite operator="in" in="color" in2="inverse" result="shadow"/>
             <feComposite operator="over" in="shadow" in2="SourceGraphic"/>
        </filter>
    </defs>

    <!-- Background: Warm Paper White -->
    <rect width="1024" height="1024" fill="#FDFCF8"/>
    <!-- Subtle grain overlay -->
    <rect width="1024" height="1024" fill="black" filter="url(#paperGrain)" opacity="0.05"/>
    
    <!-- MAIN CONTENT GROUP (Centered) -->
    <g transform="translate(512, 512)">
        
        <!-- THE HAND-DRAWN ENSO RING -->
        <!-- Logic: Variable width stroke simulated by a filled path -->
        <!-- Starting top-right, going CCW. Thicker on left, thinner on right. -->
        <path d="M180,-400 
                 C50,-420 -150,-420 -300,-300 
                 C-480,-150 -500,50 -400,220 
                 C-320,380 -150,480 50,450 
                 C250,420 400,280 450,100 
                 C480,-50 400,-250 250,-350 
                 L240,-330 
                 C370,-240 440,-60 410,80 
                 C370,240 240,380 60,410 
                 C-120,440 -280,350 -360,200 
                 C-460,40 -440,-140 -280,-270 
                 C-140,-380 40,-380 170,-360 Z" 
              fill="#D9C3B0" 
              transform="rotate(-10)"
              filter="url(#inkRoughness)" 
              opacity="0.95"/>

        <!-- THE LEAF (Organic & Integrated) -->
        <!-- Scaling and positioning to feel "nested" -->
        <g transform="translate(0, 50) scale(20)" filter="url(#inkRoughness)">
            <!-- Leaf Shape -->
            <path d="M17,8 
                     C8,10 5.9,16.17 3.82,21.34 
                     L5.71,22 
                     L6.66,19.7 
                     C7.14,19.87 7.64,20 8,20 
                     C19,20 22,3 22,3 
                     C21,5 14,5.25 9,6.25 
                     C4,7.25 2,11.5 2,13.5 
                     C2,15.5 3.75,17.25 3.75,17.25 
                     C7,8 17,8 17,8 Z" 
                  transform="translate(-13, -13)"
                  fill="#8C7B6C"/>
        </g>
    </g>
</svg>